<?xml version="1.0" encoding="UTF-8" standalone="no"?>
<!-- Created with Inkscape (http://www.inkscape.org/) -->

<svg
   width="133.34799mm"
   height="71.092674mm"
   viewBox="0 0 133.34799 71.092674"
   version="1.1"
   id="svg1"
   xml:space="preserve"
   inkscape:export-filename="todos.svg"
   inkscape:export-xdpi="96"
   inkscape:export-ydpi="96"
   xmlns:inkscape="http://www.inkscape.org/namespaces/inkscape"
   xmlns:sodipodi="http://sodipodi.sourceforge.net/DTD/sodipodi-0.dtd"
   xmlns="http://www.w3.org/2000/svg"
   xmlns:svg="http://www.w3.org/2000/svg"><sodipodi:namedview
     id="namedview1"
     pagecolor="#505050"
     bordercolor="#eeeeee"
     borderopacity="1"
     inkscape:showpageshadow="0"
     inkscape:pageopacity="0"
     inkscape:pagecheckerboard="0"
     inkscape:deskcolor="#505050"
     inkscape:document-units="mm" /><defs
     id="defs1" /><g
     inkscape:label="Camada 1"
     inkscape:groupmode="layer"
     id="layer1"
     transform="translate(-9.5480081,-5.2206428)"><g
       id="g1"
       style="fill:#ffffff"
       transform="matrix(0.31402027,0,0,0.31402027,64.392524,7.74722)"><path
         fill="#ed1d24"
         fill-rule="evenodd"
         id="path24"
         d="m 161.37312,0 c -5.29605,0 -9.70575,4.28616 -9.70575,9.58233 0,5.29602 4.4097,9.70573 9.70575,9.70573 5.29604,0 9.58234,-4.40971 9.58234,-9.70573 C 170.95546,4.2862 166.66924,0 161.37312,0 m 79.02635,120.46877 c -5.28282,0 -9.69258,4.40971 -9.69258,9.70573 0,5.27853 4.40976,9.58231 9.69258,9.58231 5.29169,0 9.59547,-4.30377 9.59547,-9.58231 0,-5.29603 -4.30382,-9.70573 -9.59547,-9.70573 M 139.11294,191.0109 c -5.29604,0 -9.59991,4.30377 -9.59991,9.59991 0,5.28282 4.30388,9.69255 9.59991,9.69255 5.28285,0 9.58231,-4.40976 9.58231,-9.69255 0,-5.29614 -4.29945,-9.59991 -9.58231,-9.59991"
         style="fill:#ffffff" /><path
         fill="#000000"
         fill-rule="evenodd"
         id="path28"
         d="m 149.03467,126.97361 h 73.72604 c 0.88618,-4.19099 3.43074,-7.82105 7.05974,-10.13174 -2.86632,-9.48969 -6.06313,-18.86296 -9.58667,-28.0034 l -72.85258,29.87312 c 0.86855,2.64582 1.3141,5.401 1.65347,8.26202 m -76.28792,0 c 0.23389,-2.86102 0.78493,-5.72202 1.65382,-8.60069 L 1.64923,87.95301 C 0,100.96693 0.33514,114.08321 2.64582,126.97362 h 70.10093 z m 72.2003,-14.22041 72.85258,-29.86607 c -3.51897,-8.48428 -7.48311,-16.8733 -11.78699,-25.01538 -2.20485,-3.86008 -4.51552,-7.60868 -6.94966,-11.36117 l -58.97118,58.97189 c 1.88313,2.20485 3.53654,4.74483 4.85527,7.27073 m 13.22452,-87.40038 -29.65085,70.86927 c 2.53995,1.32644 4.85068,2.86102 7.05553,4.74484 l 59.85735,-59.75681 c -3.09105,-3.95992 -6.29248,-7.58928 -9.8114,-11.02 -3.85869,-3.62901 -8.05212,-6.93629 -12.46185,-9.79837 -3.73944,4.18075 -9.48085,6.06352 -14.98872,4.96109 M 81.56623,105.48249 22.48957,46.40478 C 13.77599,56.76759 7.16566,68.76905 3.0911,81.67714 l 73.85376,30.86085 c 1.20826,-2.53996 2.86208,-4.9565 4.62137,-7.05553 m 67.46851,27.89407 c -0.67451,7.93042 -3.85832,15.43044 -8.94289,21.49464 L 168.98,183.84473 c 21.05194,-11.6769 40.55591,-25.79146 58.31396,-42.09682 -2.32835,-2.20132 -3.98215,-5.18582 -4.63899,-8.37138 h -73.62021 -3e-5 z m -20.96524,30.93532 8.26807,20.60924 c 6.49104,-1.10419 12.78389,1.76389 16.3028,7.27069 3.54089,-1.65448 7.05978,-3.41487 10.47287,-5.27753 l -27.53696,-27.52751 c -2.31071,1.97556 -4.85495,3.62305 -7.48772,4.95651 m 2.31528,22.81053 -8.15796,-20.39047 c -12.57226,3.85928 -26.12311,1.10414 -36.04071,-7.37657 l -31.96578,31.96509 c 21.15777,11.13008 45.30074,15.20107 68.89267,11.34177 -0.78036,-6.17004 2.08137,-12.2343 7.27178,-15.53981 M 81.672,154.87114 c -1.97556,-2.20485 -3.51895,-4.63896 -4.83727,-7.29185 l -52.14037,21.38884 c 7.27143,7.16493 15.21772,13.56425 23.90943,19.07463 L 81.672,154.87111 Z M 4.40971,133.3765 c 4.08762,10.79147 9.47628,20.93733 15.98077,30.52577 l 54.01009,-22.15439 c -0.86889,-2.75169 -1.41993,-5.51036 -1.65382,-8.37138 z M 93.47695,96.1092 60.40839,15.75306 C 47.7349,22.2614 36.37549,30.97078 26.78879,41.54945 l 59.41638,59.41744 c 2.20486,-1.88383 4.62138,-3.53838 7.27177,-4.85773 m 13.4408,-3.96168 V 2.63397 C 92.81973,3.41466 79.03957,6.82742 66.13677,12.89095 l 33.17404,80.80169 c 2.43417,-0.78316 4.96111,-1.33 7.60693,-1.54515 M 152.34195,22.80821 C 147.1519,19.28926 144.62497,13.23033 145.60393,7.04369 135.57624,4.28745 125.21343,2.86325 114.86403,2.52392 V 92.1475 c 2.63242,0.32102 5.17699,0.76199 7.82282,1.65096 l 29.6551,-70.99031 v 3e-5 4e-5 z"
         style="fill:#ffffff" /></g><g
       id="g5"><g
         style="fill:#ffffff;fill-opacity:1"
         id="g2"
         transform="matrix(0.83630666,0,0,0.83630666,30.086984,2.1589241)"><path
           d="M 16,25.093 C 7.161,25.093 0,20.297 0,14.374 0,8.458 7.161,3.661 16,3.661 c 8.839,0 16,4.797 16,10.713 0,5.923 -7.161,10.719 -16,10.719 z M 18.448,7.849 c -6.713,0 -12.161,3.281 -12.161,7.328 0,4.047 5.448,7.328 12.161,7.328 6.713,0 11.677,-2.245 11.677,-7.328 0,-5.084 -4.959,-7.328 -11.677,-7.328 z m 5.916,12.411 c 0.527,0.156 1.037,0.349 1.537,0.579 0.287,0.14 0.547,0.328 0.776,0.552 0.14,0.151 0.26,0.323 0.353,0.511 l 3.819,6.437 H 24.677 L 21.792,22.922 C 21.527,22.449 21.208,22.011 20.839,21.615 20.651,21.407 20.386,21.282 20.104,21.282 H 18.64 v 7.052 l -5.457,0.005 V 10.318 h 10.963 c 0,0 4.991,0.089 4.991,4.839 0.009,2.693 -2.079,4.932 -4.772,5.104 z m -2.369,-6.036 h -3.307 v 3.063 h 3.307 c 0.86,0.011 1.557,-0.699 1.532,-1.557 0.047,-0.865 -0.672,-1.568 -1.532,-1.505 z"
           id="path1"
           style="fill:#ffffff;fill-opacity:1" /></g><g
         id="g3"
         transform="matrix(0.21990618,0,0,0.21990618,9.5480081,26.492736)"
         style="fill:#ffffff"><path
           style="fill:#ffffff;fill-opacity:1"
           d="M 54.918785,9.1927389e-4 C 50.335132,0.02221727 45.957846,0.41313697 42.106285,1.0946693 30.760069,3.0991731 28.700036,7.2947714 28.700035,15.032169 v 10.21875 h 26.8125 v 3.40625 h -26.8125 -10.0625 c -7.792459,0 -14.6157588,4.683717 -16.7499998,13.59375 -2.46181998,10.212966 -2.57101508,16.586023 0,27.25 1.9059283,7.937852 6.4575432,13.593748 14.2499998,13.59375 h 9.21875 v -12.25 c 0,-8.849902 7.657144,-16.656248 16.75,-16.65625 h 26.78125 c 7.454951,0 13.406253,-6.138164 13.40625,-13.625 v -25.53125 c 0,-7.2663386 -6.12998,-12.7247771 -13.40625,-13.9374997 C 64.281548,0.32794397 59.502438,-0.02037903 54.918785,9.1927389e-4 Z m -14.5,8.21875012611 c 2.769547,0 5.03125,2.2986456 5.03125,5.1249996 -2e-6,2.816336 -2.261703,5.09375 -5.03125,5.09375 -2.779476,-1e-6 -5.03125,-2.277415 -5.03125,-5.09375 -10e-7,-2.826353 2.251774,-5.1249996 5.03125,-5.1249996 z"
           id="path1948" /><path
           style="fill:#ffffff;fill-opacity:1"
           d="m 85.637535,28.657169 v 11.90625 c 0,9.230755 -7.825895,16.999999 -16.75,17 h -26.78125 c -7.335833,0 -13.406249,6.278483 -13.40625,13.625 v 25.531247 c 0,7.266344 6.318588,11.540324 13.40625,13.625004 8.487331,2.49561 16.626237,2.94663 26.78125,0 6.750155,-1.95439 13.406253,-5.88761 13.40625,-13.625004 V 86.500919 h -26.78125 v -3.40625 h 26.78125 13.406254 c 7.792461,0 10.696251,-5.435408 13.406241,-13.59375 2.79933,-8.398886 2.68022,-16.475776 0,-27.25 -1.92578,-7.757441 -5.60387,-13.59375 -13.406241,-13.59375 z m -15.0625,64.65625 c 2.779478,3e-6 5.03125,2.277417 5.03125,5.093747 -2e-6,2.826354 -2.251775,5.125004 -5.03125,5.125004 -2.76955,0 -5.03125,-2.29865 -5.03125,-5.125004 2e-6,-2.81633 2.261697,-5.093747 5.03125,-5.093747 z"
           id="path1950" /></g><g
         style="fill:#ffffff"
         id="g4"
         transform="matrix(0.81597232,0,0,0.81597232,30.411925,51.021437)"><path
           d="M 13.501,16 H 6.003 c 0,0 0,0 0,0 -0.69,0 -1.25,0.559 -1.25,1.25 0,0 0,0 0,0 v 0 12.496 c 0,0 0,0 0,0 0,0.69 0.559,1.25 1.25,1.25 0,0 0,0 0,0 H 14.75 V 17.25 C 14.75,16.56 14.191,16 13.5,16 v 0 z m 6.248,-7.498 h -7.498 c 0,0 0,0 0,0 -0.69,0 -1.25,0.559 -1.25,1.25 0,0 0,0 0,0 v 0 5.623 H 13.5 c 1.035,10e-4 1.873,0.84 1.874,1.874 v 13.746 h 5.623 V 9.751 c 0,-0.69 -0.559,-1.25 -1.25,-1.25 v 0 z m 7.498,-6.248 v 27.492 c 0,0 0,0 0,0 0,0.69 -0.559,1.25 -1.25,1.25 0,0 0,0 0,0 H 21.623 V 9.752 C 21.622,8.717 20.783,7.879 19.749,7.878 H 17.25 V 2.255 c 0,0 0,0 0,0 0,-0.69 0.559,-1.25 1.25,-1.25 h 7.498 c 0.69,0 1.25,0.559 1.25,1.25 0,0 0,0 0,0 v 0 z"
           id="path1-1"
           style="fill:#ffffff" /></g></g></g></svg>
